<svg version="1.1" xmlns="http://www.w3.org/2000/svg" xmlns:xlink="http://www.w3.org/1999/xlink" width="493" height="252"><defs/><g><g><rect fill="#C0C0C0" stroke="none" x="23" y="23" width="188.8" height="15" transform="matrix(1 0 0 1 -6 -6)" fill-opacity="0.2"/></g><g><rect fill="#C0C0C0" stroke="none" x="23" y="37" width="472" height="218" transform="matrix(1 0 0 1 -6 -6)" fill-opacity="0.2"/></g><g><rect fill="#ffffff" stroke="none" x="16" y="31" width="472" height="217" transform="matrix(1 0 0 1 -6 -6)"/></g><g><path fill="none" stroke="#000000" paint-order="fill stroke markers" d=" M 10 25 L 482 25 L 482 242 L 10 242 L 10 25 Z Z" stroke-miterlimit="10" stroke-dasharray=""/></g><g><rect fill="#ffffff" stroke="none" x="16" y="16" width="188.8" height="15" transform="matrix(1 0 0 1 -6 -6)"/></g><g><path fill="none" stroke="#000000" paint-order="fill stroke markers" d=" M 10 10 L 198.8 10 L 198.8 25 L 10 25 L 10 10 Z Z" stroke-miterlimit="10" stroke-dasharray=""/></g><g><rect fill="#ffffff" stroke="none" x="16" y="30" width="472" height="218" transform="matrix(1 0 0 1 -6 -6)"/></g><g><path fill="none" stroke="#000000" paint-order="fill stroke markers" d=" M 10 24 L 482 24 L 482 242 L 10 242 L 10 24 Z Z" stroke-miterlimit="10" stroke-dasharray=""/></g><g><g><path fill="none" stroke="none"/><text fill="#000000" stroke="none" font-family="Arial" font-size="13px" font-style="normal" font-weight="bold" text-decoration="undefined" x="252.5" y="44.5" text-anchor="middle" dominant-baseline="central" transform="matrix(1 0 0 1 -6 -6)">videoshop</text></g></g><g><rect fill="#C0C0C0" stroke="none" x="55" y="55" width="32" height="15" transform="matrix(1 0 0 1 -6 -6)" fill-opacity="0.2"/></g><g><rect fill="#C0C0C0" stroke="none" x="55" y="69" width="80" height="66" transform="matrix(1 0 0 1 -6 -6)" fill-opacity="0.2"/></g><g><rect fill="#ffffff" stroke="none" x="48" y="63" width="80" height="65" transform="matrix(1 0 0 1 -6 -6)"/></g><g><path fill="none" stroke="#000000" paint-order="fill stroke markers" d=" M 42 57 L 122 57 L 122 122 L 42 122 L 42 57 Z Z" stroke-miterlimit="10" stroke-dasharray=""/></g><g><rect fill="#ffffff" stroke="none" x="48" y="48" width="32" height="15" transform="matrix(1 0 0 1 -6 -6)"/></g><g><path fill="none" stroke="#000000" paint-order="fill stroke markers" d=" M 42 42 L 74 42 L 74 57 L 42 57 L 42 42 Z Z" stroke-miterlimit="10" stroke-dasharray=""/></g><g><rect fill="#ffffff" stroke="none" x="48" y="62" width="80" height="66" transform="matrix(1 0 0 1 -6 -6)"/></g><g><path fill="none" stroke="#000000" paint-order="fill stroke markers" d=" M 42 56 L 122 56 L 122 122 L 42 122 L 42 56 Z Z" stroke-miterlimit="10" stroke-dasharray=""/></g><g><g><path fill="none" stroke="none"/><text fill="#000000" stroke="none" font-family="Arial" font-size="13px" font-style="normal" font-weight="bold" text-decoration="undefined" x="88.5" y="76.5" text-anchor="middle" dominant-baseline="central" transform="matrix(1 0 0 1 -6 -6)">catalog</text></g></g><g><rect fill="#C0C0C0" stroke="none" x="55" y="159" width="48" height="15" transform="matrix(1 0 0 1 -6 -6)" fill-opacity="0.2"/></g><g><rect fill="#C0C0C0" stroke="none" x="55" y="173" width="120" height="66" transform="matrix(1 0 0 1 -6 -6)" fill-opacity="0.2"/></g><g><rect fill="#ffffff" stroke="none" x="48" y="167" width="120" height="65" transform="matrix(1 0 0 1 -6 -6)"/></g><g><path fill="none" stroke="#000000" paint-order="fill stroke markers" d=" M 42 161 L 162 161 L 162 226 L 42 226 L 42 161 Z Z" stroke-miterlimit="10" stroke-dasharray=""/></g><g><rect fill="#ffffff" stroke="none" x="48" y="152" width="48" height="15" transform="matrix(1 0 0 1 -6 -6)"/></g><g><path fill="none" stroke="#000000" paint-order="fill stroke markers" d=" M 42 146 L 90 146 L 90 161 L 42 161 L 42 146 Z Z" stroke-miterlimit="10" stroke-dasharray=""/></g><g><rect fill="#ffffff" stroke="none" x="48" y="166" width="120" height="66" transform="matrix(1 0 0 1 -6 -6)"/></g><g><path fill="none" stroke="#000000" paint-order="fill stroke markers" d=" M 42 160 L 162 160 L 162 226 L 42 226 L 42 160 Z Z" stroke-miterlimit="10" stroke-dasharray=""/></g><g><g><path fill="none" stroke="none"/><text fill="#000000" stroke="none" font-family="Arial" font-size="13px" font-style="normal" font-weight="bold" text-decoration="undefined" x="108.5" y="180.5" text-anchor="middle" dominant-baseline="central" transform="matrix(1 0 0 1 -6 -6)">customer</text></g></g><g><rect fill="#C0C0C0" stroke="none" x="343" y="63" width="51.19999999999999" height="15" transform="matrix(1 0 0 1 -6 -6)" fill-opacity="0.2"/></g><g><rect fill="#C0C0C0" stroke="none" x="343" y="77" width="128" height="66" transform="matrix(1 0 0 1 -6 -6)" fill-opacity="0.2"/></g><g><rect fill="#ffffff" stroke="none" x="336" y="71" width="128" height="65" transform="matrix(1 0 0 1 -6 -6)"/></g><g><path fill="none" stroke="#000000" paint-order="fill stroke markers" d=" M 330 65 L 458 65 L 458 130 L 330 130 L 330 65 Z Z" stroke-miterlimit="10" stroke-dasharray=""/></g><g><rect fill="#ffffff" stroke="none" x="336" y="56" width="51.19999999999999" height="15" transform="matrix(1 0 0 1 -6 -6)"/></g><g><path fill="none" stroke="#000000" paint-order="fill stroke markers" d=" M 330 50 L 381.2 50 L 381.2 65 L 330 65 L 330 50 Z Z" stroke-miterlimit="10" stroke-dasharray=""/></g><g><rect fill="#ffffff" stroke="none" x="336" y="70" width="128" height="66" transform="matrix(1 0 0 1 -6 -6)"/></g><g><path fill="none" stroke="#000000" paint-order="fill stroke markers" d=" M 330 64 L 458 64 L 458 130 L 330 130 L 330 64 Z Z" stroke-miterlimit="10" stroke-dasharray=""/></g><g><g><path fill="none" stroke="none"/><text fill="#000000" stroke="none" font-family="Arial" font-size="13px" font-style="normal" font-weight="bold" text-decoration="undefined" x="400.5" y="84.5" text-anchor="middle" dominant-baseline="central" transform="matrix(1 0 0 1 -6 -6)">inventory</text></g></g><g><rect fill="#C0C0C0" stroke="none" x="343" y="159" width="43.01523437499998" height="15" transform="matrix(1 0 0 1 -6 -6)" fill-opacity="0.2"/></g><g><rect fill="#C0C0C0" stroke="none" x="343" y="173" width="107.5380859375" height="66" transform="matrix(1 0 0 1 -6 -6)" fill-opacity="0.2"/></g><g><rect fill="#ffffff" stroke="none" x="336" y="167" width="107.5380859375" height="65" transform="matrix(1 0 0 1 -6 -6)"/></g><g><path fill="none" stroke="#000000" paint-order="fill stroke markers" d=" M 330 161 L 437.5380859375 161 L 437.5380859375 226 L 330 226 L 330 161 Z Z" stroke-miterlimit="10" stroke-dasharray=""/></g><g><rect fill="#ffffff" stroke="none" x="336" y="152" width="43.01523437499998" height="15" transform="matrix(1 0 0 1 -6 -6)"/></g><g><path fill="none" stroke="#000000" paint-order="fill stroke markers" d=" M 330 146 L 373.015234375 146 L 373.015234375 161 L 330 161 L 330 146 Z Z" stroke-miterlimit="10" stroke-dasharray=""/></g><g><rect fill="#ffffff" stroke="none" x="336" y="166" width="107.5380859375" height="66" transform="matrix(1 0 0 1 -6 -6)"/></g><g><path fill="none" stroke="#000000" paint-order="fill stroke markers" d=" M 330 160 L 437.5380859375 160 L 437.5380859375 226 L 330 226 L 330 160 Z Z" stroke-miterlimit="10" stroke-dasharray=""/></g><g><g><path fill="none" stroke="none"/><text fill="#000000" stroke="none" font-family="Arial" font-size="13px" font-style="normal" font-weight="bold" text-decoration="undefined" x="390.26904296875" y="180.5" text-anchor="middle" dominant-baseline="central" transform="matrix(1 0 0 1 -6 -6)">order</text></g></g><g><path fill="none" stroke="#000000" paint-order="fill stroke markers" d=" M 330 210 L 162 210" stroke-miterlimit="10" stroke-dasharray="3"/></g><g><path fill="none" stroke="#000000" paint-order="fill stroke markers" d=" M 172.16267485762415 205.790482243984 L 162 210 L 172.16267485762415 214.209517756016" stroke-miterlimit="10" stroke-dasharray=""/></g><g><rect fill="#ffffff" stroke="none" x="288" y="200" width="35.419921875" height="13" transform="matrix(1 0 0 1 -6 -6)"/></g><g><g><path fill="none" stroke="none"/><text fill="#000000" stroke="none" font-family="Arial" font-size="13px" font-style="normal" font-weight="normal" text-decoration="undefined" x="305.7099609375" y="206.5" text-anchor="middle" dominant-baseline="central" transform="matrix(1 0 0 1 -6 -6)">«use»</text></g></g><g><path fill="none" stroke="#000000" paint-order="fill stroke markers" d=" M 330 162 L 202 162 L 202 98 L 122 98" stroke-miterlimit="10" stroke-dasharray="3"/></g><g><path fill="none" stroke="#000000" paint-order="fill stroke markers" d=" M 132.16267485762415 93.79048224398402 L 122 98 L 132.16267485762415 102.20951775601598" stroke-miterlimit="10" stroke-dasharray=""/></g><g><rect fill="#ffffff" stroke="none" x="288" y="151" width="35.419921875" height="13" transform="matrix(1 0 0 1 -6 -6)"/></g><g><g><path fill="none" stroke="none"/><text fill="#000000" stroke="none" font-family="Arial" font-size="13px" font-style="normal" font-weight="normal" text-decoration="undefined" x="305.7099609375" y="157.5" text-anchor="middle" dominant-baseline="central" transform="matrix(1 0 0 1 -6 -6)">«use»</text></g></g><g><path fill="none" stroke="#000000" paint-order="fill stroke markers" d=" M 330 66 L 122 66" stroke-miterlimit="10" stroke-dasharray="3"/></g><g><path fill="none" stroke="#000000" paint-order="fill stroke markers" d=" M 132.16267485762415 61.790482243984016 L 122 66 L 132.16267485762415 70.20951775601598" stroke-miterlimit="10" stroke-dasharray=""/></g><g><rect fill="#ffffff" stroke="none" x="288" y="56" width="35.419921875" height="13" transform="matrix(1 0 0 1 -6 -6)"/></g><g><g><path fill="none" stroke="none"/><text fill="#000000" stroke="none" font-family="Arial" font-size="13px" font-style="normal" font-weight="normal" text-decoration="undefined" x="305.7099609375" y="62.5" text-anchor="middle" dominant-baseline="central" transform="matrix(1 0 0 1 -6 -6)">«use»</text></g></g><g><path fill="none" stroke="#000000" paint-order="fill stroke markers" d=" M 330 98 L 250 98 L 250 186 L 162 186" stroke-miterlimit="10" stroke-dasharray="3"/></g><g><path fill="none" stroke="#000000" paint-order="fill stroke markers" d=" M 172.16267485762415 181.790482243984 L 162 186 L 172.16267485762415 190.209517756016" stroke-miterlimit="10" stroke-dasharray=""/></g><g><rect fill="#ffffff" stroke="none" x="288" y="88" width="35.419921875" height="13" transform="matrix(1 0 0 1 -6 -6)"/></g><g><g><path fill="none" stroke="none"/><text fill="#000000" stroke="none" font-family="Arial" font-size="13px" font-style="normal" font-weight="normal" text-decoration="undefined" x="305.7099609375" y="94.5" text-anchor="middle" dominant-baseline="central" transform="matrix(1 0 0 1 -6 -6)">«use»</text></g></g></g></svg>