<svg version="1.1" xmlns="http://www.w3.org/2000/svg" xmlns:xlink="http://www.w3.org/1999/xlink" width="1120.17724609375" height="924"><defs/><g><g><path fill="#C0C0C0" stroke="none" paint-order="stroke fill markers" d=" M 921 274.5 C 921 264.835016 938.0131776 257 959 257 C 979.9868224 257 997 264.835016 997 274.5 C 997 284.164984 979.9868224 292 959 292 C 938.0131776 292 921 284.164984 921 274.5 Z" fill-opacity="0.2"/></g><g><path fill="#ffffff" stroke="none" paint-order="stroke fill markers" d=" M 914 267.5 C 914 257.835016 931.0131776 250 952 250 C 972.9868224 250 990 257.835016 990 267.5 C 990 277.164984 972.9868224 285 952 285 C 931.0131776 285 914 277.164984 914 267.5 Z"/></g><g><path fill="none" stroke="#000000" paint-order="fill stroke markers" d=" M 914 267.5 C 914 257.835016 931.0131776 250 952 250 C 972.9868224 250 990 257.835016 990 267.5 C 990 277.164984 972.9868224 285 952 285 C 931.0131776 285 914 277.164984 914 267.5 Z" stroke-miterlimit="10" stroke-dasharray=""/></g><g><g><path fill="none" stroke="none"/><text fill="#000000" stroke="none" font-family="Arial" font-size="13px" font-style="normal" font-weight="bold" text-decoration="undefined" x="950" y="274.5" text-anchor="middle" dominant-baseline="central" transform="matrix(1 0 0 1 2 -6)">Hidden</text></g></g><g><path fill="#C0C0C0" stroke="none" paint-order="stroke fill markers" d=" M 305 330.5 C 305 320.835016 322.0131776 313 343 313 C 363.9868224 313 381 320.835016 381 330.5 C 381 340.164984 363.9868224 348 343 348 C 322.0131776 348 305 340.164984 305 330.5 Z" fill-opacity="0.2"/></g><g><path fill="#ffffff" stroke="none" paint-order="stroke fill markers" d=" M 298 323.5 C 298 313.835016 315.0131776 306 336 306 C 356.9868224 306 374 313.835016 374 323.5 C 374 333.164984 356.9868224 341 336 341 C 315.0131776 341 298 333.164984 298 323.5 Z"/></g><g><path fill="none" stroke="#000000" paint-order="fill stroke markers" d=" M 298 323.5 C 298 313.835016 315.0131776 306 336 306 C 356.9868224 306 374 313.835016 374 323.5 C 374 333.164984 356.9868224 341 336 341 C 315.0131776 341 298 333.164984 298 323.5 Z" stroke-miterlimit="10" stroke-dasharray=""/></g><g><g><path fill="none" stroke="none"/><text fill="#000000" stroke="none" font-family="Arial" font-size="13px" font-style="normal" font-weight="bold" text-decoration="undefined" x="334" y="330.5" text-anchor="middle" dominant-baseline="central" transform="matrix(1 0 0 1 2 -6)">Hidden</text></g></g><g><path fill="#ffffff" stroke="none" paint-order="stroke fill markers" d=" M 130.748623046875 75.85 C 130.748623046875 70.96227952 134.70642541487499 67 139.588623046875 67 C 144.47082067887501 67 148.428623046875 70.96227952 148.428623046875 75.85 C 148.428623046875 80.73772048 144.47082067887501 84.7 139.588623046875 84.7 C 134.70642541487499 84.7 130.748623046875 80.73772048 130.748623046875 75.85 Z"/></g><g><path fill="none" stroke="#000000" paint-order="fill stroke markers" d=" M 130.748623046875 75.85 C 130.748623046875 70.96227952 134.70642541487499 67 139.588623046875 67 C 144.47082067887501 67 148.428623046875 70.96227952 148.428623046875 75.85 C 148.428623046875 80.73772048 144.47082067887501 84.7 139.588623046875 84.7 C 134.70642541487499 84.7 130.748623046875 80.73772048 130.748623046875 75.85 Z" stroke-miterlimit="10" stroke-dasharray=""/></g><g><path fill="none" stroke="#000000" paint-order="fill stroke markers" d=" M 139.588623046875 84.7 L 139.588623046875 102.3" stroke-miterlimit="10" stroke-dasharray=""/></g><g><path fill="none" stroke="#000000" paint-order="fill stroke markers" d=" M 130.228623046875 91.3 L 148.948623046875 91.3" stroke-miterlimit="10" stroke-dasharray=""/></g><g><path fill="none" stroke="#000000" paint-order="fill stroke markers" d=" M 139.588623046875 102.3 L 126.588623046875 120" stroke-miterlimit="10" stroke-dasharray=""/></g><g><path fill="none" stroke="#000000" paint-order="fill stroke markers" d=" M 139.588623046875 102.3 L 152.588623046875 120" stroke-miterlimit="10" stroke-dasharray=""/></g><g><g><path fill="none" stroke="none"/><text fill="#000000" stroke="none" font-family="Arial" font-size="13px" font-style="normal" font-weight="bold" text-decoration="undefined" x="138.088623046875" y="140.5" text-anchor="middle" dominant-baseline="central" transform="matrix(1 0 0 1 2 -6)">User</text></g></g><g><path fill="#ffffff" stroke="none" paint-order="stroke fill markers" d=" M 1074.748623046875 67.85 C 1074.748623046875 62.962279519999996 1078.706425414875 59 1083.588623046875 59 C 1088.470820678875 59 1092.428623046875 62.962279519999996 1092.428623046875 67.85 C 1092.428623046875 72.73772048 1088.470820678875 76.7 1083.588623046875 76.7 C 1078.706425414875 76.7 1074.748623046875 72.73772048 1074.748623046875 67.85 Z"/></g><g><path fill="none" stroke="#000000" paint-order="fill stroke markers" d=" M 1074.748623046875 67.85 C 1074.748623046875 62.962279519999996 1078.706425414875 59 1083.588623046875 59 C 1088.470820678875 59 1092.428623046875 62.962279519999996 1092.428623046875 67.85 C 1092.428623046875 72.73772048 1088.470820678875 76.7 1083.588623046875 76.7 C 1078.706425414875 76.7 1074.748623046875 72.73772048 1074.748623046875 67.85 Z" stroke-miterlimit="10" stroke-dasharray=""/></g><g><path fill="none" stroke="#000000" paint-order="fill stroke markers" d=" M 1083.588623046875 76.7 L 1083.588623046875 94.3" stroke-miterlimit="10" stroke-dasharray=""/></g><g><path fill="none" stroke="#000000" paint-order="fill stroke markers" d=" M 1074.228623046875 83.3 L 1092.948623046875 83.3" stroke-miterlimit="10" stroke-dasharray=""/></g><g><path fill="none" stroke="#000000" paint-order="fill stroke markers" d=" M 1083.588623046875 94.3 L 1070.588623046875 112" stroke-miterlimit="10" stroke-dasharray=""/></g><g><path fill="none" stroke="#000000" paint-order="fill stroke markers" d=" M 1083.588623046875 94.3 L 1096.588623046875 112" stroke-miterlimit="10" stroke-dasharray=""/></g><g><g><path fill="none" stroke="none"/><text fill="#000000" stroke="none" font-family="Arial" font-size="13px" font-style="normal" font-weight="bold" text-decoration="undefined" x="1082.088623046875" y="132.5" text-anchor="middle" dominant-baseline="central" transform="matrix(1 0 0 1 2 -6)">Boss</text></g></g><g><rect fill="#C0C0C0" stroke="none" x="271" y="47" width="300.79999999999995" height="15" transform="matrix(1 0 0 1 2 -6)" fill-opacity="0.2"/></g><g><rect fill="#C0C0C0" stroke="none" x="271" y="61" width="752" height="866" transform="matrix(1 0 0 1 2 -6)" fill-opacity="0.2"/></g><g><rect fill="#ffffff" stroke="none" x="264" y="55" width="752" height="865" transform="matrix(1 0 0 1 2 -6)"/></g><g><path fill="none" stroke="#000000" paint-order="fill stroke markers" d=" M 266 49 L 1018 49 L 1018 914 L 266 914 L 266 49 Z Z" stroke-miterlimit="10" stroke-dasharray=""/></g><g><rect fill="#ffffff" stroke="none" x="264" y="40" width="300.79999999999995" height="15" transform="matrix(1 0 0 1 2 -6)"/></g><g><path fill="none" stroke="#000000" paint-order="fill stroke markers" d=" M 266 34 L 566.8 34 L 566.8 49 L 266 49 L 266 34 Z Z" stroke-miterlimit="10" stroke-dasharray=""/></g><g><rect fill="#ffffff" stroke="none" x="264" y="54" width="752" height="866" transform="matrix(1 0 0 1 2 -6)"/></g><g><path fill="none" stroke="#000000" paint-order="fill stroke markers" d=" M 266 48 L 1018 48 L 1018 914 L 266 914 L 266 48 Z Z" stroke-miterlimit="10" stroke-dasharray=""/></g><g><g><path fill="none" stroke="none"/><text fill="#000000" stroke="none" font-family="Arial" font-size="13px" font-style="normal" font-weight="bold" text-decoration="undefined" x="640.5" y="68.5" text-anchor="middle" dominant-baseline="central" transform="matrix(1 0 0 1 2 -6)">videoshop</text></g></g><g><rect fill="#C0C0C0" stroke="none" x="303" y="303" width="144" height="15" transform="matrix(1 0 0 1 2 -6)" fill-opacity="0.2"/></g><g><rect fill="#C0C0C0" stroke="none" x="303" y="317" width="360" height="282" transform="matrix(1 0 0 1 2 -6)" fill-opacity="0.2"/></g><g><rect fill="#ffffff" stroke="none" x="296" y="311" width="360" height="281" transform="matrix(1 0 0 1 2 -6)"/></g><g><path fill="none" stroke="#000000" paint-order="fill stroke markers" d=" M 298 305 L 658 305 L 658 586 L 298 586 L 298 305 Z Z" stroke-miterlimit="10" stroke-dasharray=""/></g><g><rect fill="#ffffff" stroke="none" x="296" y="296" width="144" height="15" transform="matrix(1 0 0 1 2 -6)"/></g><g><path fill="none" stroke="#000000" paint-order="fill stroke markers" d=" M 298 290 L 442 290 L 442 305 L 298 305 L 298 290 Z Z" stroke-miterlimit="10" stroke-dasharray=""/></g><g><rect fill="#ffffff" stroke="none" x="296" y="310" width="360" height="282" transform="matrix(1 0 0 1 2 -6)"/></g><g><path fill="none" stroke="#000000" paint-order="fill stroke markers" d=" M 298 304 L 658 304 L 658 586 L 298 586 L 298 304 Z Z" stroke-miterlimit="10" stroke-dasharray=""/></g><g><g><path fill="none" stroke="none"/><text fill="#000000" stroke="none" font-family="Arial" font-size="13px" font-style="normal" font-weight="bold" text-decoration="undefined" x="476.5" y="324.5" text-anchor="middle" dominant-baseline="central" transform="matrix(1 0 0 1 2 -6)">catalog</text></g></g><g><rect fill="#C0C0C0" stroke="none" x="735" y="423" width="102.39999999999998" height="15" transform="matrix(1 0 0 1 2 -6)" fill-opacity="0.2"/></g><g><rect fill="#C0C0C0" stroke="none" x="735" y="437" width="256" height="138" transform="matrix(1 0 0 1 2 -6)" fill-opacity="0.2"/></g><g><rect fill="#ffffff" stroke="none" x="728" y="431" width="256" height="137" transform="matrix(1 0 0 1 2 -6)"/></g><g><path fill="none" stroke="#000000" paint-order="fill stroke markers" d=" M 730 425 L 986 425 L 986 562 L 730 562 L 730 425 Z Z" stroke-miterlimit="10" stroke-dasharray=""/></g><g><rect fill="#ffffff" stroke="none" x="728" y="416" width="102.39999999999998" height="15" transform="matrix(1 0 0 1 2 -6)"/></g><g><path fill="none" stroke="#000000" paint-order="fill stroke markers" d=" M 730 410 L 832.4 410 L 832.4 425 L 730 425 L 730 410 Z Z" stroke-miterlimit="10" stroke-dasharray=""/></g><g><rect fill="#ffffff" stroke="none" x="728" y="430" width="256" height="138" transform="matrix(1 0 0 1 2 -6)"/></g><g><path fill="none" stroke="#000000" paint-order="fill stroke markers" d=" M 730 424 L 986 424 L 986 562 L 730 562 L 730 424 Z Z" stroke-miterlimit="10" stroke-dasharray=""/></g><g><g><path fill="none" stroke="none"/><text fill="#000000" stroke="none" font-family="Arial" font-size="13px" font-style="normal" font-weight="bold" text-decoration="undefined" x="856.5" y="444.5" text-anchor="middle" dominant-baseline="central" transform="matrix(1 0 0 1 2 -6)">inventory</text></g></g><g><rect fill="#C0C0C0" stroke="none" x="303" y="95" width="140.8" height="15" transform="matrix(1 0 0 1 2 -6)" fill-opacity="0.2"/></g><g><rect fill="#C0C0C0" stroke="none" x="303" y="109" width="352" height="170" transform="matrix(1 0 0 1 2 -6)" fill-opacity="0.2"/></g><g><rect fill="#ffffff" stroke="none" x="296" y="103" width="352" height="169" transform="matrix(1 0 0 1 2 -6)"/></g><g><path fill="none" stroke="#000000" paint-order="fill stroke markers" d=" M 298 97 L 650 97 L 650 266 L 298 266 L 298 97 Z Z" stroke-miterlimit="10" stroke-dasharray=""/></g><g><rect fill="#ffffff" stroke="none" x="296" y="88" width="140.8" height="15" transform="matrix(1 0 0 1 2 -6)"/></g><g><path fill="none" stroke="#000000" paint-order="fill stroke markers" d=" M 298 82 L 438.8 82 L 438.8 97 L 298 97 L 298 82 Z Z" stroke-miterlimit="10" stroke-dasharray=""/></g><g><rect fill="#ffffff" stroke="none" x="296" y="102" width="352" height="170" transform="matrix(1 0 0 1 2 -6)"/></g><g><path fill="none" stroke="#000000" paint-order="fill stroke markers" d=" M 298 96 L 650 96 L 650 266 L 298 266 L 298 96 Z Z" stroke-miterlimit="10" stroke-dasharray=""/></g><g><g><path fill="none" stroke="none"/><text fill="#000000" stroke="none" font-family="Arial" font-size="13px" font-style="normal" font-weight="bold" text-decoration="undefined" x="472.5" y="116.5" text-anchor="middle" dominant-baseline="central" transform="matrix(1 0 0 1 2 -6)">customer</text></g></g><g><rect fill="#C0C0C0" stroke="none" x="735" y="119" width="102.39999999999998" height="15" transform="matrix(1 0 0 1 2 -6)" fill-opacity="0.2"/></g><g><rect fill="#C0C0C0" stroke="none" x="735" y="133" width="256" height="234" transform="matrix(1 0 0 1 2 -6)" fill-opacity="0.2"/></g><g><rect fill="#ffffff" stroke="none" x="728" y="127" width="256" height="233" transform="matrix(1 0 0 1 2 -6)"/></g><g><path fill="none" stroke="#000000" paint-order="fill stroke markers" d=" M 730 121 L 986 121 L 986 354 L 730 354 L 730 121 Z Z" stroke-miterlimit="10" stroke-dasharray=""/></g><g><rect fill="#ffffff" stroke="none" x="728" y="112" width="102.39999999999998" height="15" transform="matrix(1 0 0 1 2 -6)"/></g><g><path fill="none" stroke="#000000" paint-order="fill stroke markers" d=" M 730 106 L 832.4 106 L 832.4 121 L 730 121 L 730 106 Z Z" stroke-miterlimit="10" stroke-dasharray=""/></g><g><rect fill="#ffffff" stroke="none" x="728" y="126" width="256" height="234" transform="matrix(1 0 0 1 2 -6)"/></g><g><path fill="none" stroke="#000000" paint-order="fill stroke markers" d=" M 730 120 L 986 120 L 986 354 L 730 354 L 730 120 Z Z" stroke-miterlimit="10" stroke-dasharray=""/></g><g><g><path fill="none" stroke="none"/><text fill="#000000" stroke="none" font-family="Arial" font-size="13px" font-style="normal" font-weight="bold" text-decoration="undefined" x="856.5" y="140.5" text-anchor="middle" dominant-baseline="central" transform="matrix(1 0 0 1 2 -6)">order</text></g></g><g><path fill="#ffffff" stroke="none" paint-order="stroke fill markers" d=" M 56.0144921875 379.85 C 56.0144921875 374.96227952000004 59.9722945555 371 64.8544921875 371 C 69.7366898195 371 73.6944921875 374.96227952000004 73.6944921875 379.85 C 73.6944921875 384.73772048 69.7366898195 388.7 64.8544921875 388.7 C 59.9722945555 388.7 56.0144921875 384.73772048 56.0144921875 379.85 Z"/></g><g><path fill="none" stroke="#000000" paint-order="fill stroke markers" d=" M 56.0144921875 379.85 C 56.0144921875 374.96227952000004 59.9722945555 371 64.8544921875 371 C 69.7366898195 371 73.6944921875 374.96227952000004 73.6944921875 379.85 C 73.6944921875 384.73772048 69.7366898195 388.7 64.8544921875 388.7 C 59.9722945555 388.7 56.0144921875 384.73772048 56.0144921875 379.85 Z" stroke-miterlimit="10" stroke-dasharray=""/></g><g><path fill="none" stroke="#000000" paint-order="fill stroke markers" d=" M 64.8544921875 388.7 L 64.8544921875 406.3" stroke-miterlimit="10" stroke-dasharray=""/></g><g><path fill="none" stroke="#000000" paint-order="fill stroke markers" d=" M 55.4944921875 395.3 L 74.2144921875 395.3" stroke-miterlimit="10" stroke-dasharray=""/></g><g><path fill="none" stroke="#000000" paint-order="fill stroke markers" d=" M 64.8544921875 406.3 L 51.8544921875 424" stroke-miterlimit="10" stroke-dasharray=""/></g><g><path fill="none" stroke="#000000" paint-order="fill stroke markers" d=" M 64.8544921875 406.3 L 77.8544921875 424" stroke-miterlimit="10" stroke-dasharray=""/></g><g><g><path fill="none" stroke="none"/><text fill="#000000" stroke="none" font-family="Arial" font-size="13px" font-style="normal" font-weight="bold" text-decoration="undefined" x="63.3544921875" y="444.5" text-anchor="middle" dominant-baseline="central" transform="matrix(1 0 0 1 2 -6)">Registered User</text></g></g><g><path fill="#ffffff" stroke="none" paint-order="stroke fill markers" d=" M 129.0808984375 299.85 C 129.0808984375 294.96227952000004 133.03870080549999 291 137.9208984375 291 C 142.80309606950001 291 146.7608984375 294.96227952000004 146.7608984375 299.85 C 146.7608984375 304.73772048 142.80309606950001 308.7 137.9208984375 308.7 C 133.03870080549999 308.7 129.0808984375 304.73772048 129.0808984375 299.85 Z"/></g><g><path fill="none" stroke="#000000" paint-order="fill stroke markers" d=" M 129.0808984375 299.85 C 129.0808984375 294.96227952000004 133.03870080549999 291 137.9208984375 291 C 142.80309606950001 291 146.7608984375 294.96227952000004 146.7608984375 299.85 C 146.7608984375 304.73772048 142.80309606950001 308.7 137.9208984375 308.7 C 133.03870080549999 308.7 129.0808984375 304.73772048 129.0808984375 299.85 Z" stroke-miterlimit="10" stroke-dasharray=""/></g><g><path fill="none" stroke="#000000" paint-order="fill stroke markers" d=" M 137.9208984375 308.7 L 137.9208984375 326.3" stroke-miterlimit="10" stroke-dasharray=""/></g><g><path fill="none" stroke="#000000" paint-order="fill stroke markers" d=" M 128.5608984375 315.3 L 147.2808984375 315.3" stroke-miterlimit="10" stroke-dasharray=""/></g><g><path fill="none" stroke="#000000" paint-order="fill stroke markers" d=" M 137.9208984375 326.3 L 124.9208984375 344" stroke-miterlimit="10" stroke-dasharray=""/></g><g><path fill="none" stroke="#000000" paint-order="fill stroke markers" d=" M 137.9208984375 326.3 L 150.9208984375 344" stroke-miterlimit="10" stroke-dasharray=""/></g><g><g><path fill="none" stroke="none"/><text fill="#000000" stroke="none" font-family="Arial" font-size="13px" font-style="normal" font-weight="bold" text-decoration="undefined" x="136.4208984375" y="364.5" text-anchor="middle" dominant-baseline="central" transform="matrix(1 0 0 1 2 -6)">Unauthenticated</text><text fill="#000000" stroke="none" font-family="Arial" font-size="13px" font-style="normal" font-weight="bold" text-decoration="undefined" x="136.4208984375" y="377.5" text-anchor="middle" dominant-baseline="central" transform="matrix(1 0 0 1 2 -6)">User</text></g></g><g><path fill="#ffffff" stroke="none" paint-order="stroke fill markers" d=" M 52.498623046875 563.85 C 52.498623046875 558.96227952 56.456425414875 555 61.338623046875 555 C 66.220820678875 555 70.178623046875 558.96227952 70.178623046875 563.85 C 70.178623046875 568.73772048 66.220820678875 572.7 61.338623046875 572.7 C 56.456425414875 572.7 52.498623046875 568.73772048 52.498623046875 563.85 Z"/></g><g><path fill="none" stroke="#000000" paint-order="fill stroke markers" d=" M 52.498623046875 563.85 C 52.498623046875 558.96227952 56.456425414875 555 61.338623046875 555 C 66.220820678875 555 70.178623046875 558.96227952 70.178623046875 563.85 C 70.178623046875 568.73772048 66.220820678875 572.7 61.338623046875 572.7 C 56.456425414875 572.7 52.498623046875 568.73772048 52.498623046875 563.85 Z" stroke-miterlimit="10" stroke-dasharray=""/></g><g><path fill="none" stroke="#000000" paint-order="fill stroke markers" d=" M 61.338623046875 572.7 L 61.338623046875 590.3" stroke-miterlimit="10" stroke-dasharray=""/></g><g><path fill="none" stroke="#000000" paint-order="fill stroke markers" d=" M 51.978623046875 579.3 L 70.698623046875 579.3" stroke-miterlimit="10" stroke-dasharray=""/></g><g><path fill="none" stroke="#000000" paint-order="fill stroke markers" d=" M 61.338623046875 590.3 L 48.338623046875 608" stroke-miterlimit="10" stroke-dasharray=""/></g><g><path fill="none" stroke="#000000" paint-order="fill stroke markers" d=" M 61.338623046875 590.3 L 74.338623046875 608" stroke-miterlimit="10" stroke-dasharray=""/></g><g><g><path fill="none" stroke="none"/><text fill="#000000" stroke="none" font-family="Arial" font-size="13px" font-style="normal" font-weight="bold" text-decoration="undefined" x="59.838623046875" y="628.5" text-anchor="middle" dominant-baseline="central" transform="matrix(1 0 0 1 2 -6)">Customer</text></g></g><g><path fill="none" stroke="#000000" paint-order="fill stroke markers" d=" M 82 370 L 82 250 L 138 250 L 138 146" stroke-miterlimit="10" stroke-dasharray=""/></g><g><path fill="#FFFFFF" stroke="none" paint-order="stroke fill markers" d=" M 146.41903551203197 166.3253497152483 L 138 146 L 129.58096448796803 166.3253497152483"/></g><g><path fill="none" stroke="#000000" paint-order="fill stroke markers" d=" M 146.41903551203197 166.3253497152483 L 138 146 L 129.58096448796803 166.3253497152483 L 146.41903551203197 166.3253497152483" stroke-miterlimit="10" stroke-dasharray=""/></g><g><path fill="none" stroke="#000000" paint-order="fill stroke markers" d=" M 62 554 L 62 450" stroke-miterlimit="10" stroke-dasharray=""/></g><g><path fill="#FFFFFF" stroke="none" paint-order="stroke fill markers" d=" M 70.41903551203198 470.3253497152483 L 62 450 L 53.580964487968025 470.3253497152483"/></g><g><path fill="none" stroke="#000000" paint-order="fill stroke markers" d=" M 70.41903551203198 470.3253497152483 L 62 450 L 53.580964487968025 470.3253497152483 L 70.41903551203198 470.3253497152483" stroke-miterlimit="10" stroke-dasharray=""/></g><g><path fill="none" stroke="#000000" paint-order="fill stroke markers" d=" M 138 290 L 138 146" stroke-miterlimit="10" stroke-dasharray=""/></g><g><path fill="#FFFFFF" stroke="none" paint-order="stroke fill markers" d=" M 146.41903551203197 166.3253497152483 L 138 146 L 129.58096448796803 166.3253497152483"/></g><g><path fill="none" stroke="#000000" paint-order="fill stroke markers" d=" M 146.41903551203197 166.3253497152483 L 138 146 L 129.58096448796803 166.3253497152483 L 146.41903551203197 166.3253497152483" stroke-miterlimit="10" stroke-dasharray=""/></g><g><path fill="none" stroke="#000000" paint-order="fill stroke markers" d=" M 1083 58 L 1083 10 L 50 10 L 50 370" stroke-miterlimit="10" stroke-dasharray=""/></g><g><path fill="#FFFFFF" stroke="none" paint-order="stroke fill markers" d=" M 41.580964487968025 349.6746502847517 L 50 370 L 58.419035512031975 349.6746502847517"/></g><g><path fill="none" stroke="#000000" paint-order="fill stroke markers" d=" M 41.580964487968025 349.6746502847517 L 50 370 L 58.419035512031975 349.6746502847517 L 41.580964487968025 349.6746502847517" stroke-miterlimit="10" stroke-dasharray=""/></g><g><path fill="#C0C0C0" stroke="none" paint-order="stroke fill markers" d=" M 481 155.5 C 481 140.8644528 506.0720512 129 537 129 C 567.9279488 129 593 140.8644528 593 155.5 C 593 170.1355472 567.9279488 182 537 182 C 506.0720512 182 481 170.1355472 481 155.5 Z" fill-opacity="0.2"/></g><g><path fill="#ffffff" stroke="none" paint-order="stroke fill markers" d=" M 474 148.5 C 474 133.8644528 499.0720512 122 530 122 C 560.9279488 122 586 133.8644528 586 148.5 C 586 163.1355472 560.9279488 175 530 175 C 499.0720512 175 474 163.1355472 474 148.5 Z"/></g><g><path fill="none" stroke="#000000" paint-order="fill stroke markers" d=" M 474 148.5 C 474 133.8644528 499.0720512 122 530 122 C 560.9279488 122 586 133.8644528 586 148.5 C 586 163.1355472 560.9279488 175 530 175 C 499.0720512 175 474 163.1355472 474 148.5 Z" stroke-miterlimit="10" stroke-dasharray=""/></g><g><g><path fill="none" stroke="none"/><text fill="#000000" stroke="none" font-family="Arial" font-size="13px" font-style="normal" font-weight="bold" text-decoration="undefined" x="528" y="149" text-anchor="middle" dominant-baseline="central" transform="matrix(1 0 0 1 2 -6)">[UC0011]</text><text fill="#000000" stroke="none" font-family="Arial" font-size="13px" font-style="normal" font-weight="bold" text-decoration="undefined" x="528" y="162" text-anchor="middle" dominant-baseline="central" transform="matrix(1 0 0 1 2 -6)">Logout</text></g></g><g><path fill="#C0C0C0" stroke="none" paint-order="stroke fill markers" d=" M 313 155.5 C 313 140.8644528 341.6537728 129 377 129 C 412.3462272 129 441 140.8644528 441 155.5 C 441 170.1355472 412.3462272 182 377 182 C 341.6537728 182 313 170.1355472 313 155.5 Z" fill-opacity="0.2"/></g><g><path fill="#ffffff" stroke="none" paint-order="stroke fill markers" d=" M 306 148.5 C 306 133.8644528 334.6537728 122 370 122 C 405.3462272 122 434 133.8644528 434 148.5 C 434 163.1355472 405.3462272 175 370 175 C 334.6537728 175 306 163.1355472 306 148.5 Z"/></g><g><path fill="none" stroke="#000000" paint-order="fill stroke markers" d=" M 306 148.5 C 306 133.8644528 334.6537728 122 370 122 C 405.3462272 122 434 133.8644528 434 148.5 C 434 163.1355472 405.3462272 175 370 175 C 334.6537728 175 306 163.1355472 306 148.5 Z" stroke-miterlimit="10" stroke-dasharray=""/></g><g><g><path fill="none" stroke="none"/><text fill="#000000" stroke="none" font-family="Arial" font-size="13px" font-style="normal" font-weight="bold" text-decoration="undefined" x="368" y="149" text-anchor="middle" dominant-baseline="central" transform="matrix(1 0 0 1 2 -6)">[UC0010]</text><text fill="#000000" stroke="none" font-family="Arial" font-size="13px" font-style="normal" font-weight="bold" text-decoration="undefined" x="368" y="162" text-anchor="middle" dominant-baseline="central" transform="matrix(1 0 0 1 2 -6)">Login</text></g></g><g><path fill="#C0C0C0" stroke="none" paint-order="stroke fill markers" d=" M 329 227.5 C 329 212.8644528 357.6537728 201 393 201 C 428.3462272 201 457 212.8644528 457 227.5 C 457 242.1355472 428.3462272 254 393 254 C 357.6537728 254 329 242.1355472 329 227.5 Z" fill-opacity="0.2"/></g><g><path fill="#ffffff" stroke="none" paint-order="stroke fill markers" d=" M 322 220.5 C 322 205.8644528 350.6537728 194 386 194 C 421.3462272 194 450 205.8644528 450 220.5 C 450 235.1355472 421.3462272 247 386 247 C 350.6537728 247 322 235.1355472 322 220.5 Z"/></g><g><path fill="none" stroke="#000000" paint-order="fill stroke markers" d=" M 322 220.5 C 322 205.8644528 350.6537728 194 386 194 C 421.3462272 194 450 205.8644528 450 220.5 C 450 235.1355472 421.3462272 247 386 247 C 350.6537728 247 322 235.1355472 322 220.5 Z" stroke-miterlimit="10" stroke-dasharray=""/></g><g><g><path fill="none" stroke="none"/><text fill="#000000" stroke="none" font-family="Arial" font-size="13px" font-style="normal" font-weight="bold" text-decoration="undefined" x="384" y="221" text-anchor="middle" dominant-baseline="central" transform="matrix(1 0 0 1 2 -6)">[UC0020]</text><text fill="#000000" stroke="none" font-family="Arial" font-size="13px" font-style="normal" font-weight="bold" text-decoration="undefined" x="384" y="234" text-anchor="middle" dominant-baseline="central" transform="matrix(1 0 0 1 2 -6)">Register</text></g></g><g><path fill="none" stroke="#000000" paint-order="fill stroke markers" d=" M 165 74 L 530 74 L 530 122" stroke-miterlimit="10" stroke-dasharray=""/></g><g><path fill="none" stroke="#000000" paint-order="fill stroke markers" d=" M 525.790482243984 111.83732514237585 L 530 122 L 534.209517756016 111.83732514237585" stroke-miterlimit="10" stroke-dasharray=""/></g><g><path fill="none" stroke="#000000" paint-order="fill stroke markers" d=" M 165 74 L 362 74 L 362 122" stroke-miterlimit="10" stroke-dasharray=""/></g><g><path fill="none" stroke="#000000" paint-order="fill stroke markers" d=" M 357.790482243984 111.83732514237585 L 362 122 L 366.209517756016 111.83732514237585" stroke-miterlimit="10" stroke-dasharray=""/></g><g><path fill="none" stroke="#000000" paint-order="fill stroke markers" d=" M 194 322 L 210 322 L 210 218 L 322 218" stroke-miterlimit="10" stroke-dasharray=""/></g><g><path fill="none" stroke="#000000" paint-order="fill stroke markers" d=" M 311.83732514237585 222.209517756016 L 322 218 L 311.83732514237585 213.790482243984" stroke-miterlimit="10" stroke-dasharray=""/></g><g><path fill="#C0C0C0" stroke="none" paint-order="stroke fill markers" d=" M 777 187.5 C 777 172.8644528 809.2354944 161 849 161 C 888.7645056 161 921 172.8644528 921 187.5 C 921 202.1355472 888.7645056 214 849 214 C 809.2354944 214 777 202.1355472 777 187.5 Z" fill-opacity="0.2"/></g><g><path fill="#ffffff" stroke="none" paint-order="stroke fill markers" d=" M 770 180.5 C 770 165.8644528 802.2354944 154 842 154 C 881.7645056 154 914 165.8644528 914 180.5 C 914 195.1355472 881.7645056 207 842 207 C 802.2354944 207 770 195.1355472 770 180.5 Z"/></g><g><path fill="none" stroke="#000000" paint-order="fill stroke markers" d=" M 770 180.5 C 770 165.8644528 802.2354944 154 842 154 C 881.7645056 154 914 165.8644528 914 180.5 C 914 195.1355472 881.7645056 207 842 207 C 802.2354944 207 770 195.1355472 770 180.5 Z" stroke-miterlimit="10" stroke-dasharray=""/></g><g><g><path fill="none" stroke="none"/><text fill="#000000" stroke="none" font-family="Arial" font-size="13px" font-style="normal" font-weight="bold" text-decoration="undefined" x="840" y="181" text-anchor="middle" dominant-baseline="central" transform="matrix(1 0 0 1 2 -6)">[UC0300] View</text><text fill="#000000" stroke="none" font-family="Arial" font-size="13px" font-style="normal" font-weight="bold" text-decoration="undefined" x="840" y="194" text-anchor="middle" dominant-baseline="central" transform="matrix(1 0 0 1 2 -6)">Customer List</text></g></g><g><path fill="#C0C0C0" stroke="none" paint-order="stroke fill markers" d=" M 777 251.5 C 777 236.8644528 807.4446336 225 845 225 C 882.5553664 225 913 236.8644528 913 251.5 C 913 266.1355472 882.5553664 278 845 278 C 807.4446336 278 777 266.1355472 777 251.5 Z" fill-opacity="0.2"/></g><g><path fill="#ffffff" stroke="none" paint-order="stroke fill markers" d=" M 770 244.5 C 770 229.8644528 800.4446336 218 838 218 C 875.5553664 218 906 229.8644528 906 244.5 C 906 259.1355472 875.5553664 271 838 271 C 800.4446336 271 770 259.1355472 770 244.5 Z"/></g><g><path fill="none" stroke="#000000" paint-order="fill stroke markers" d=" M 770 244.5 C 770 229.8644528 800.4446336 218 838 218 C 875.5553664 218 906 229.8644528 906 244.5 C 906 259.1355472 875.5553664 271 838 271 C 800.4446336 271 770 259.1355472 770 244.5 Z" stroke-miterlimit="10" stroke-dasharray=""/></g><g><g><path fill="none" stroke="none"/><text fill="#000000" stroke="none" font-family="Arial" font-size="13px" font-style="normal" font-weight="bold" text-decoration="undefined" x="836" y="245" text-anchor="middle" dominant-baseline="central" transform="matrix(1 0 0 1 2 -6)">[UC0310]      </text><text fill="#000000" stroke="none" font-family="Arial" font-size="13px" font-style="normal" font-weight="bold" text-decoration="undefined" x="836" y="258" text-anchor="middle" dominant-baseline="central" transform="matrix(1 0 0 1 2 -6)">View Orders</text></g></g><g><rect fill="#C0C0C0" stroke="none" x="327" y="647" width="102.39999999999998" height="15" transform="matrix(1 0 0 1 2 -6)" fill-opacity="0.2"/></g><g><rect fill="#C0C0C0" stroke="none" x="327" y="661" width="256" height="234" transform="matrix(1 0 0 1 2 -6)" fill-opacity="0.2"/></g><g><rect fill="#ffffff" stroke="none" x="320" y="655" width="256" height="233" transform="matrix(1 0 0 1 2 -6)"/></g><g><path fill="none" stroke="#000000" paint-order="fill stroke markers" d=" M 322 649 L 578 649 L 578 882 L 322 882 L 322 649 Z Z" stroke-miterlimit="10" stroke-dasharray=""/></g><g><rect fill="#ffffff" stroke="none" x="320" y="640" width="102.39999999999998" height="15" transform="matrix(1 0 0 1 2 -6)"/></g><g><path fill="none" stroke="#000000" paint-order="fill stroke markers" d=" M 322 634 L 424.4 634 L 424.4 649 L 322 649 L 322 634 Z Z" stroke-miterlimit="10" stroke-dasharray=""/></g><g><rect fill="#ffffff" stroke="none" x="320" y="654" width="256" height="234" transform="matrix(1 0 0 1 2 -6)"/></g><g><path fill="none" stroke="#000000" paint-order="fill stroke markers" d=" M 322 648 L 578 648 L 578 882 L 322 882 L 322 648 Z Z" stroke-miterlimit="10" stroke-dasharray=""/></g><g><g><path fill="none" stroke="none"/><text fill="#000000" stroke="none" font-family="Arial" font-size="13px" font-style="normal" font-weight="bold" text-decoration="undefined" x="448.5" y="668.5" text-anchor="middle" dominant-baseline="central" transform="matrix(1 0 0 1 2 -6)">Cart</text></g></g><g><path fill="#C0C0C0" stroke="none" paint-order="stroke fill markers" d=" M 353 789 C 353 773.5360256 394.1897984 761 445 761 C 495.8102016 761 537 773.5360256 537 789 C 537 804.4639744 495.8102016 817 445 817 C 394.1897984 817 353 804.4639744 353 789 Z" fill-opacity="0.2"/></g><g><path fill="#ffffff" stroke="none" paint-order="stroke fill markers" d=" M 346 782 C 346 766.5360256 387.1897984 754 438 754 C 488.8102016 754 530 766.5360256 530 782 C 530 797.4639744 488.8102016 810 438 810 C 387.1897984 810 346 797.4639744 346 782 Z"/></g><g><path fill="none" stroke="#000000" paint-order="fill stroke markers" d=" M 346 782 C 346 766.5360256 387.1897984 754 438 754 C 488.8102016 754 530 766.5360256 530 782 C 530 797.4639744 488.8102016 810 438 810 C 387.1897984 810 346 797.4639744 346 782 Z" stroke-miterlimit="10" stroke-dasharray=""/></g><g><g><path fill="none" stroke="none"/><text fill="#000000" stroke="none" font-family="Arial" font-size="13px" font-style="normal" font-weight="bold" text-decoration="undefined" x="436" y="782.5" text-anchor="middle" dominant-baseline="central" transform="matrix(1 0 0 1 2 -6)">[UC0220] Buy</text><text fill="#000000" stroke="none" font-family="Arial" font-size="13px" font-style="normal" font-weight="bold" text-decoration="undefined" x="436" y="795.5" text-anchor="middle" dominant-baseline="central" transform="matrix(1 0 0 1 2 -6)">Products in Cart</text></g></g><g><path fill="#C0C0C0" stroke="none" paint-order="stroke fill markers" d=" M 353 853 C 353 837.5360256 394.1897984 825 445 825 C 495.8102016 825 537 837.5360256 537 853 C 537 868.4639744 495.8102016 881 445 881 C 394.1897984 881 353 868.4639744 353 853 Z" fill-opacity="0.2"/></g><g><path fill="#ffffff" stroke="none" paint-order="stroke fill markers" d=" M 346 846 C 346 830.5360256 387.1897984 818 438 818 C 488.8102016 818 530 830.5360256 530 846 C 530 861.4639744 488.8102016 874 438 874 C 387.1897984 874 346 861.4639744 346 846 Z"/></g><g><path fill="none" stroke="#000000" paint-order="fill stroke markers" d=" M 346 846 C 346 830.5360256 387.1897984 818 438 818 C 488.8102016 818 530 830.5360256 530 846 C 530 861.4639744 488.8102016 874 438 874 C 387.1897984 874 346 861.4639744 346 846 Z" stroke-miterlimit="10" stroke-dasharray=""/></g><g><g><path fill="none" stroke="none"/><text fill="#000000" stroke="none" font-family="Arial" font-size="13px" font-style="normal" font-weight="bold" text-decoration="undefined" x="436" y="846.5" text-anchor="middle" dominant-baseline="central" transform="matrix(1 0 0 1 2 -6)">[UC0210] Add</text><text fill="#000000" stroke="none" font-family="Arial" font-size="13px" font-style="normal" font-weight="bold" text-decoration="undefined" x="436" y="859.5" text-anchor="middle" dominant-baseline="central" transform="matrix(1 0 0 1 2 -6)">Product to Cart</text></g></g><g><path fill="#C0C0C0" stroke="none" paint-order="stroke fill markers" d=" M 361 717 C 361 701.5360256 391.4446336 689 429 689 C 466.5553664 689 497 701.5360256 497 717 C 497 732.4639744 466.5553664 745 429 745 C 391.4446336 745 361 732.4639744 361 717 Z" fill-opacity="0.2"/></g><g><path fill="#ffffff" stroke="none" paint-order="stroke fill markers" d=" M 354 710 C 354 694.5360256 384.4446336 682 422 682 C 459.5553664 682 490 694.5360256 490 710 C 490 725.4639744 459.5553664 738 422 738 C 384.4446336 738 354 725.4639744 354 710 Z"/></g><g><path fill="none" stroke="#000000" paint-order="fill stroke markers" d=" M 354 710 C 354 694.5360256 384.4446336 682 422 682 C 459.5553664 682 490 694.5360256 490 710 C 490 725.4639744 459.5553664 738 422 738 C 384.4446336 738 354 725.4639744 354 710 Z" stroke-miterlimit="10" stroke-dasharray=""/></g><g><g><path fill="none" stroke="none"/><text fill="#000000" stroke="none" font-family="Arial" font-size="13px" font-style="normal" font-weight="bold" text-decoration="undefined" x="420" y="710.5" text-anchor="middle" dominant-baseline="central" transform="matrix(1 0 0 1 2 -6)">[UC0200]</text><text fill="#000000" stroke="none" font-family="Arial" font-size="13px" font-style="normal" font-weight="bold" text-decoration="undefined" x="420" y="723.5" text-anchor="middle" dominant-baseline="central" transform="matrix(1 0 0 1 2 -6)">View Cart</text></g></g><g><path fill="none" stroke="#000000" paint-order="fill stroke markers" d=" M 61 634 L 61 706 L 210 706 L 210 682 L 242 682 L 242 706 L 354 706" stroke-miterlimit="10" stroke-dasharray=""/></g><g><path fill="none" stroke="#000000" paint-order="fill stroke markers" d=" M 343.83732514237585 710.209517756016 L 354 706 L 343.83732514237585 701.790482243984" stroke-miterlimit="10" stroke-dasharray=""/></g><g><path fill="none" stroke="#000000" paint-order="fill stroke markers" d=" M 120 410 L 226 410 L 226 786 L 346 786" stroke-miterlimit="10" stroke-dasharray=""/></g><g><path fill="none" stroke="#000000" paint-order="fill stroke markers" d=" M 335.83732514237585 790.209517756016 L 346 786 L 335.83732514237585 781.790482243984" stroke-miterlimit="10" stroke-dasharray=""/></g><g><path fill="none" stroke="#000000" paint-order="fill stroke markers" d=" M 120 410 L 226 410 L 226 850 L 346 850" stroke-miterlimit="10" stroke-dasharray=""/></g><g><path fill="none" stroke="#000000" paint-order="fill stroke markers" d=" M 335.83732514237585 854.209517756016 L 346 850 L 335.83732514237585 845.790482243984" stroke-miterlimit="10" stroke-dasharray=""/></g><g><path fill="#C0C0C0" stroke="none" paint-order="stroke fill markers" d=" M 465 389 C 465 369.1177472 502.6080768 353 549 353 C 595.3919232 353 633 369.1177472 633 389 C 633 408.8822528 595.3919232 425 549 425 C 502.6080768 425 465 408.8822528 465 389 Z" fill-opacity="0.2"/></g><g><path fill="#ffffff" stroke="none" paint-order="stroke fill markers" d=" M 458 382 C 458 362.1177472 495.6080768 346 542 346 C 588.3919232 346 626 362.1177472 626 382 C 626 401.8822528 588.3919232 418 542 418 C 495.6080768 418 458 401.8822528 458 382 Z"/></g><g><path fill="none" stroke="#000000" paint-order="fill stroke markers" d=" M 458 382 C 458 362.1177472 495.6080768 346 542 346 C 588.3919232 346 626 362.1177472 626 382 C 626 401.8822528 588.3919232 418 542 418 C 495.6080768 418 458 401.8822528 458 382 Z" stroke-miterlimit="10" stroke-dasharray=""/></g><g><g><path fill="none" stroke="none"/><text fill="#000000" stroke="none" font-family="Arial" font-size="13px" font-style="normal" font-weight="bold" text-decoration="undefined" x="540" y="382.5" text-anchor="middle" dominant-baseline="central" transform="matrix(1 0 0 1 2 -6)">[UC0110] View</text><text fill="#000000" stroke="none" font-family="Arial" font-size="13px" font-style="normal" font-weight="bold" text-decoration="undefined" x="540" y="395.5" text-anchor="middle" dominant-baseline="central" transform="matrix(1 0 0 1 2 -6)">Product Details</text></g></g><g><path fill="#C0C0C0" stroke="none" paint-order="stroke fill markers" d=" M 321 357 C 321 341.5360256 351.4446336 329 389 329 C 426.5553664 329 457 341.5360256 457 357 C 457 372.4639744 426.5553664 385 389 385 C 351.4446336 385 321 372.4639744 321 357 Z" fill-opacity="0.2"/></g><g><path fill="#ffffff" stroke="none" paint-order="stroke fill markers" d=" M 314 350 C 314 334.5360256 344.4446336 322 382 322 C 419.5553664 322 450 334.5360256 450 350 C 450 365.4639744 419.5553664 378 382 378 C 344.4446336 378 314 365.4639744 314 350 Z"/></g><g><path fill="none" stroke="#000000" paint-order="fill stroke markers" d=" M 314 350 C 314 334.5360256 344.4446336 322 382 322 C 419.5553664 322 450 334.5360256 450 350 C 450 365.4639744 419.5553664 378 382 378 C 344.4446336 378 314 365.4639744 314 350 Z" stroke-miterlimit="10" stroke-dasharray=""/></g><g><g><path fill="none" stroke="none"/><text fill="#000000" stroke="none" font-family="Arial" font-size="13px" font-style="normal" font-weight="bold" text-decoration="undefined" x="380" y="350.5" text-anchor="middle" dominant-baseline="central" transform="matrix(1 0 0 1 2 -6)">[UC0100]  </text><text fill="#000000" stroke="none" font-family="Arial" font-size="13px" font-style="normal" font-weight="bold" text-decoration="undefined" x="380" y="363.5" text-anchor="middle" dominant-baseline="central" transform="matrix(1 0 0 1 2 -6)">View Catalog</text></g></g><g><path fill="#C0C0C0" stroke="none" paint-order="stroke fill markers" d=" M 321 461 C 321 441.1177472 362.1897984 425 413 425 C 463.8102016 425 505 441.1177472 505 461 C 505 480.8822528 463.8102016 497 413 497 C 362.1897984 497 321 480.8822528 321 461 Z" fill-opacity="0.2"/></g><g><path fill="#ffffff" stroke="none" paint-order="stroke fill markers" d=" M 314 454 C 314 434.1177472 355.1897984 418 406 418 C 456.8102016 418 498 434.1177472 498 454 C 498 473.8822528 456.8102016 490 406 490 C 355.1897984 490 314 473.8822528 314 454 Z"/></g><g><path fill="none" stroke="#000000" paint-order="fill stroke markers" d=" M 314 454 C 314 434.1177472 355.1897984 418 406 418 C 456.8102016 418 498 434.1177472 498 454 C 498 473.8822528 456.8102016 490 406 490 C 355.1897984 490 314 473.8822528 314 454 Z" stroke-miterlimit="10" stroke-dasharray=""/></g><g><g><path fill="none" stroke="none"/><text fill="#000000" stroke="none" font-family="Arial" font-size="13px" font-style="normal" font-weight="bold" text-decoration="undefined" x="404" y="454.5" text-anchor="middle" dominant-baseline="central" transform="matrix(1 0 0 1 2 -6)">[UC0120] Comment</text><text fill="#000000" stroke="none" font-family="Arial" font-size="13px" font-style="normal" font-weight="bold" text-decoration="undefined" x="404" y="467.5" text-anchor="middle" dominant-baseline="central" transform="matrix(1 0 0 1 2 -6)">on Product</text></g></g><g><path fill="#C0C0C0" stroke="none" paint-order="stroke fill markers" d=" M 409 555.5 C 409 540.8644528 456.6816688 529 515.5 529 C 574.3183312 529 622 540.8644528 622 555.5 C 622 570.1355472 574.3183312 582 515.5 582 C 456.6816688 582 409 570.1355472 409 555.5 Z" fill-opacity="0.2"/></g><g><path fill="#ffffff" stroke="none" paint-order="stroke fill markers" d=" M 402 548.5 C 402 533.8644528 449.6816688 522 508.5 522 C 567.3183312 522 615 533.8644528 615 548.5 C 615 563.1355472 567.3183312 575 508.5 575 C 449.6816688 575 402 563.1355472 402 548.5 Z"/></g><g><path fill="none" stroke="#000000" paint-order="fill stroke markers" d=" M 402 548.5 C 402 533.8644528 449.6816688 522 508.5 522 C 567.3183312 522 615 533.8644528 615 548.5 C 615 563.1355472 567.3183312 575 508.5 575 C 449.6816688 575 402 563.1355472 402 548.5 Z" stroke-miterlimit="10" stroke-dasharray=""/></g><g><g><path fill="none" stroke="none"/><text fill="#000000" stroke="none" font-family="Arial" font-size="13px" font-style="normal" font-weight="bold" text-decoration="undefined" x="506.5" y="549" text-anchor="middle" dominant-baseline="central" transform="matrix(1 0 0 1 2 -6)">[UC0121] Rate</text><text fill="#000000" stroke="none" font-family="Arial" font-size="13px" font-style="normal" font-weight="bold" text-decoration="undefined" x="506.5" y="562" text-anchor="middle" dominant-baseline="central" transform="matrix(1 0 0 1 2 -6)">Product</text></g></g><g><path fill="#C0C0C0" stroke="none" paint-order="stroke fill markers" d=" M 761 501 C 761 481.1177472 796.817216 465 841 465 C 885.182784 465 921 481.1177472 921 501 C 921 520.8822528 885.182784 537 841 537 C 796.817216 537 761 520.8822528 761 501 Z" fill-opacity="0.2"/></g><g><path fill="#ffffff" stroke="none" paint-order="stroke fill markers" d=" M 754 494 C 754 474.1177472 789.817216 458 834 458 C 878.182784 458 914 474.1177472 914 494 C 914 513.8822528 878.182784 530 834 530 C 789.817216 530 754 513.8822528 754 494 Z"/></g><g><path fill="none" stroke="#000000" paint-order="fill stroke markers" d=" M 754 494 C 754 474.1177472 789.817216 458 834 458 C 878.182784 458 914 474.1177472 914 494 C 914 513.8822528 878.182784 530 834 530 C 789.817216 530 754 513.8822528 754 494 Z" stroke-miterlimit="10" stroke-dasharray=""/></g><g><g><path fill="none" stroke="none"/><text fill="#000000" stroke="none" font-family="Arial" font-size="13px" font-style="normal" font-weight="bold" text-decoration="undefined" x="832" y="494.5" text-anchor="middle" dominant-baseline="central" transform="matrix(1 0 0 1 2 -6)">[UC0400]        </text><text fill="#000000" stroke="none" font-family="Arial" font-size="13px" font-style="normal" font-weight="bold" text-decoration="undefined" x="832" y="507.5" text-anchor="middle" dominant-baseline="central" transform="matrix(1 0 0 1 2 -6)">View Inventory</text></g></g><g><path fill="none" stroke="#000000" paint-order="fill stroke markers" d=" M 346 490 L 346 546 L 402 546" stroke-miterlimit="10" stroke-dasharray="3"/></g><g><path fill="none" stroke="#000000" paint-order="fill stroke markers" d=" M 391.83732514237585 550.209517756016 L 402 546 L 391.83732514237585 541.790482243984" stroke-miterlimit="10" stroke-dasharray=""/></g><g><rect fill="#ffffff" stroke="none" x="352" y="520" width="55.65625" height="13" transform="matrix(1 0 0 1 2 -6)"/></g><g><g><path fill="none" stroke="none"/><text fill="#000000" stroke="none" font-family="Arial" font-size="13px" font-style="normal" font-weight="normal" text-decoration="undefined" x="379.828125" y="526.5" text-anchor="middle" dominant-baseline="central" transform="matrix(1 0 0 1 2 -6)">«include»</text></g></g><g><path fill="none" stroke="#000000" paint-order="fill stroke markers" d=" M 1083 138 L 1083 494 L 914 494" stroke-miterlimit="10" stroke-dasharray=""/></g><g><path fill="none" stroke="#000000" paint-order="fill stroke markers" d=" M 924.1626748576241 489.790482243984 L 914 494 L 924.1626748576241 498.209517756016" stroke-miterlimit="10" stroke-dasharray=""/></g><g><path fill="none" stroke="#000000" paint-order="fill stroke markers" d=" M 530 790 L 682 790 L 682 314 L 770 314" stroke-miterlimit="10" stroke-dasharray="3"/></g><g><path fill="none" stroke="#000000" paint-order="fill stroke markers" d=" M 759.8373251423759 318.209517756016 L 770 314 L 759.8373251423758 309.790482243984" stroke-miterlimit="10" stroke-dasharray=""/></g><g><rect fill="#ffffff" stroke="none" x="616" y="656" width="55.65625" height="13" transform="matrix(1 0 0 1 2 -6)"/></g><g><g><path fill="none" stroke="none"/><text fill="#000000" stroke="none" font-family="Arial" font-size="13px" font-style="normal" font-weight="normal" text-decoration="undefined" x="643.828125" y="662.5" text-anchor="middle" dominant-baseline="central" transform="matrix(1 0 0 1 2 -6)">«include»</text></g></g><g><path fill="#C0C0C0" stroke="none" paint-order="stroke fill markers" d=" M 777 315.5 C 777 300.8644528 807.4446336 289 845 289 C 882.5553664 289 913 300.8644528 913 315.5 C 913 330.1355472 882.5553664 342 845 342 C 807.4446336 342 777 330.1355472 777 315.5 Z" fill-opacity="0.2"/></g><g><path fill="#ffffff" stroke="none" paint-order="stroke fill markers" d=" M 770 308.5 C 770 293.8644528 800.4446336 282 838 282 C 875.5553664 282 906 293.8644528 906 308.5 C 906 323.1355472 875.5553664 335 838 335 C 800.4446336 335 770 323.1355472 770 308.5 Z"/></g><g><path fill="none" stroke="#000000" paint-order="fill stroke markers" d=" M 770 308.5 C 770 293.8644528 800.4446336 282 838 282 C 875.5553664 282 906 293.8644528 906 308.5 C 906 323.1355472 875.5553664 335 838 335 C 800.4446336 335 770 323.1355472 770 308.5 Z" stroke-miterlimit="10" stroke-dasharray=""/></g><g><g><path fill="none" stroke="none"/><text fill="#000000" stroke="none" font-family="Arial" font-size="13px" font-style="normal" font-weight="bold" text-decoration="undefined" x="836" y="309" text-anchor="middle" dominant-baseline="central" transform="matrix(1 0 0 1 2 -6)">[UC0320]</text><text fill="#000000" stroke="none" font-family="Arial" font-size="13px" font-style="normal" font-weight="bold" text-decoration="undefined" x="836" y="322" text-anchor="middle" dominant-baseline="central" transform="matrix(1 0 0 1 2 -6)">Create Order</text></g></g><g><path fill="none" stroke="#000000" paint-order="fill stroke markers" d=" M 1083 138 L 1083 267 L 990 267" stroke-miterlimit="10" stroke-dasharray=""/></g><g><path fill="none" stroke="#000000" paint-order="fill stroke markers" d=" M 1000.1626748576241 262.790482243984 L 990 267 L 1000.1626748576241 271.209517756016" stroke-miterlimit="10" stroke-dasharray=""/></g><g><path fill="none" stroke="#000000" paint-order="fill stroke markers" d=" M 165 146 L 242 146 L 242 202 L 226 202 L 226 234 L 242 234 L 242 323 L 298 323" stroke-miterlimit="10" stroke-dasharray=""/></g><g><path fill="none" stroke="#000000" paint-order="fill stroke markers" d=" M 287.83732514237585 327.209517756016 L 298 323 L 287.83732514237585 318.790482243984" stroke-miterlimit="10" stroke-dasharray=""/></g><g><path fill="#C0C0C0" stroke="none" paint-order="stroke fill markers" d=" M 473 219.5 C 473 204.8644528 509.0410736 193 553.5 193 C 597.9589264 193 634 204.8644528 634 219.5 C 634 234.1355472 597.9589264 246 553.5 246 C 509.0410736 246 473 234.1355472 473 219.5 Z" fill-opacity="0.2"/></g><g><path fill="#ffffff" stroke="none" paint-order="stroke fill markers" d=" M 466 212.5 C 466 197.8644528 502.0410736 186 546.5 186 C 590.9589264 186 627 197.8644528 627 212.5 C 627 227.1355472 590.9589264 239 546.5 239 C 502.0410736 239 466 227.1355472 466 212.5 Z"/></g><g><path fill="none" stroke="#000000" paint-order="fill stroke markers" d=" M 466 212.5 C 466 197.8644528 502.0410736 186 546.5 186 C 590.9589264 186 627 197.8644528 627 212.5 C 627 227.1355472 590.9589264 239 546.5 239 C 502.0410736 239 466 227.1355472 466 212.5 Z" stroke-miterlimit="10" stroke-dasharray=""/></g><g><g><path fill="none" stroke="none"/><text fill="#000000" stroke="none" font-family="Arial" font-size="13px" font-style="normal" font-weight="bold" text-decoration="undefined" x="544.5" y="213" text-anchor="middle" dominant-baseline="central" transform="matrix(1 0 0 1 2 -6)">[UC0030]     </text><text fill="#000000" stroke="none" font-family="Arial" font-size="13px" font-style="normal" font-weight="bold" text-decoration="undefined" x="544.5" y="226" text-anchor="middle" dominant-baseline="central" transform="matrix(1 0 0 1 2 -6)">View Customers</text></g></g><g><path fill="none" stroke="#000000" paint-order="fill stroke markers" d=" M 1058 90 L 682 90 L 682 218 L 627 218" stroke-miterlimit="10" stroke-dasharray=""/></g><g><path fill="none" stroke="#000000" paint-order="fill stroke markers" d=" M 637.1626748576241 213.790482243984 L 627 218 L 637.1626748576241 222.209517756016" stroke-miterlimit="10" stroke-dasharray=""/></g></g></svg>